<svg width="32" height="32" viewBox="0 0 32 32" fill="none" xmlns="http://www.w3.org/2000/svg">
    <path opacity="0.48"
        d="M0 16C0 7.16344 7.16344 0 16 0C24.8366 0 32 7.16344 32 16C32 24.8366 24.8366 32 16 32C7.16344 32 0 24.8366 0 16Z"
        fill="#00538F" />
    <path
        d="M14.2263 17.7741L7.97743 17.1232C7.13632 17.0356 6.41938 16.4747 6.13192 15.6794C5.71791 14.5339 6.31084 13.2697 7.45628 12.8557L20.4545 8.15758C21.0358 7.94747 21.6723 7.94747 22.2536 8.15758C23.6281 8.6544 24.3397 10.1714 23.8428 11.5459L19.1447 24.5441C18.8572 25.3395 18.1403 25.9003 17.2992 25.988C16.0878 26.1141 15.0034 25.2344 14.8773 24.023L14.2263 17.7741ZM7.98384 14.5486C7.80303 14.6536 7.71751 14.876 7.79111 15.0797C7.84861 15.2387 7.99199 15.3509 8.16022 15.3684L15.121 16.0935C15.5358 16.1367 15.8637 16.4646 15.9069 16.8795L16.632 23.8402C16.6573 24.0825 16.8741 24.2584 17.1164 24.2332C17.2846 24.2157 17.428 24.1035 17.4855 23.9444L22.1836 10.9462C22.3493 10.4881 22.1121 9.98238 21.6539 9.81678C21.4601 9.74674 21.248 9.74674 21.0542 9.81678L8.05599 14.5149L7.98384 14.5486Z"
        fill="#F0F6FB" />
</svg>