<?xml version="1.0" encoding="utf-8"?>
<!-- Generator: Adobe Illustrator 16.0.0, SVG Export Plug-In . SVG Version: 6.00 Build 0)  -->
<!DOCTYPE svg PUBLIC "-//W3C//DTD SVG 1.1//EN" "http://www.w3.org/Graphics/SVG/1.1/DTD/svg11.dtd">
<svg version="1.1" id="Слой_1" xmlns="http://www.w3.org/2000/svg" xmlns:xlink="http://www.w3.org/1999/xlink" x="0px" y="0px"
	 width="595.28px" height="841.89px" viewBox="0 0 595.28 841.89" enable-background="new 0 0 595.28 841.89" xml:space="preserve">
<g>
	<path fill="#191010" d="M298.035,650.982c-126.837,0-230.019-103.182-230.019-230.01c0-126.821,103.181-230.002,230.019-230.002
		c126.853,0,230.05,103.181,230.05,230.002C528.085,547.801,424.888,650.982,298.035,650.982z M298.035,201.353
		c-121.106,0-219.635,98.521-219.635,219.619C78.4,542.07,176.929,640.6,298.035,640.6c121.121,0,219.666-98.529,219.666-219.627
		C517.701,299.875,419.156,201.353,298.035,201.353z"/>
</g>
<g>
	<path d="M298.035,616.689c-107.905,0-195.693-87.797-195.693-195.717c0-107.912,87.789-195.709,195.693-195.709
		c107.912,0,195.693,87.797,195.693,195.709C493.729,528.893,405.947,616.689,298.035,616.689z M298.035,235.646
		c-102.181,0-185.311,83.137-185.311,185.326c0,102.189,83.129,185.334,185.311,185.334c102.181,0,185.311-83.146,185.311-185.334
		C483.346,318.784,400.216,235.646,298.035,235.646z"/>
</g>
<g>
	<path fill-rule="evenodd" clip-rule="evenodd" d="M337.075,415.209l-15.13,5.573c25.989,16.576,27.164,48.685,27.164,71.738v38.04
		h-27.832v-83.511h-32.102v83.605h-24.584V316.537h-34.786v214.371l-7.906,15.338h129.496h32.642h7.875l-7.875-15.338v-33.625
		C384.037,457.211,368.384,426.862,337.075,415.209 M289.843,305.82L289.843,305.82c9.462,0,23.782,2.096,33.928,14.686
		c5.271,6.398,8.542,12.876,9.685,21.386h-44.279v12.59h44.66c-0.349,8.113-2,17.194-9.938,26.847
		c-7.017,8.764-18.512,16.877-34.737,16.877c-5.382,0-9.32-0.365-11.995-0.714v12.796c6.009,0.667,18.059,1.397,34.348-0.587
		c23.879-2.858,36.04-15.035,43.01-23.434c9.479-10.844,13.32-24.132,13.32-36.723c0-10.161-2.826-30.435-20.64-44.422
		c-12.257-9.446-23.084-14.003-48.963-14.003h-13.098c-0.405-0.016-0.793-0.016-1.302-0.016h-65.268l7.525,14.701L289.843,305.82z"
		/>
</g>
</svg>
